HIERARCHY
ROOT ui
{
	 OFFSET 0 0 0
	 CHANNELS 3 XPosition YPosition Z Position
	 EndSite
	 {
	 OFFSET 0 -1 0
	 }
}
ROOT li
{
	 OFFSET 0 0 0
	 CHANNELS 3 XPosition YPosition Z Position
	 EndSite
	 {
	 OFFSET 0 -1 0
	 }
}
ROOT ul
{
	 OFFSET 0 0 0
	 CHANNELS 3 XPosition YPosition Z Position
	 EndSite
	 {
	 OFFSET 0 -1 0
	 }
}
ROOT ll
{
	 OFFSET 0 0 0
	 CHANNELS 3 XPosition YPosition Z Position
	 EndSite
	 {
	 OFFSET 0 -1 0
	 }
}
ROOT tt
{
	 OFFSET 0 0 0
	 CHANNELS 3 XPosition YPosition Z Position
	 EndSite
	 {
	 OFFSET 0 -1 0
	 }
}
ROOT tb
{
	 OFFSET 0 0 0
	 CHANNELS 3 XPosition YPosition Z Position
	 EndSite
	 {
	 OFFSET 0 -1 0
	 }
}
ROOT td
{
	 OFFSET 0 0 0
	 CHANNELS 3 XPosition YPosition Z Position
	 EndSite
	 {
	 OFFSET 0 -1 0
	 }
}
ROOT v
{
	 OFFSET 0 0 0
	 CHANNELS 3 XPosition YPosition Z Position
	 EndSite
	 {
	 OFFSET 0 -1 0
	 }
}
ROOT bn
{
	 OFFSET 0 0 0
	 CHANNELS 3 XPosition YPosition Z Position
	 EndSite
	 {
	 OFFSET 0 -1 0
	 }
}
MOTION
Frames: 24
Frame Time: 0.002
0.005476434230804444	-2.7902999892830847E-5	0		0.41879681396484375	-2.334968505859375	0		-1.0901881103515625	-0.06127421951293945	0		-0.9206974487304688	-2.341688720703125	0		1.3152474365234375	-0.5557794799804687	0		2.99201953125	0.034465099334716795	0		4.51391943359375	0.05706577682495117	0		5.52698193359375	0.004150272846221924	0		-0.035652366638183594	5.9664267578125	0		
0.016897960662841795	0.009437053680419923	0		0.36360400390625	-2.31397021484375	0		-1.07776318359375	-0.05189899826049805	0		-0.9131989135742188	-2.335189453125	0		1.340541748046875	-0.553548095703125	0		3.018637939453125	0.05277273178100586	0		4.518564453125	0.07696247863769531	0		5.5365166015625	0.018997642517089845	0		-0.03481962966918945	5.9661171875	0		
0.002987533092498779	0.0034733591079711915	0		0.4137565612792969	-2.32435009765625	0		-1.0905799560546876	-0.05395524978637695	0		-0.9278037719726563	-2.334191162109375	0		1.3118729248046874	-0.5500933227539062	0		2.988593994140625	0.04135965347290039	0		4.52251025390625	0.06487963104248047	0		5.5294013671875	0.004227087020874023	0		-0.18263430786132812	5.938146484375	0		
-0.06884825897216797	0.001815662980079651	0		0.36017645263671877	-2.321386474609375	0		-1.093429443359375	-0.05722942352294922	0		-0.8925625610351563	-2.340306396484375	0		1.348910400390625	-0.56010986328125	0		2.984962890625	0.04836496353149414	0		4.50790283203125	0.07322891235351563	0		5.53479296875	0.012192061424255371	0		-0.06455922698974609	5.9472138671875	0		
0.005378081798553467	0.0028950719833374023	0		0.41537646484375	-2.32785302734375	0		-1.0922481689453125	-0.05758251190185547	0		-0.9271600341796875	-2.3368427734375	0		1.308178955078125	-0.557369140625	0		2.990979736328125	0.04116125106811523	0		4.52005078125	0.07198643493652344	0		5.53179150390625	0.0043519787788391115	0		-0.06375986862182617	5.94692626953125	0		
-0.07143719482421874	0.0063643078804016115	0		0.36483657836914063	-2.318938720703125	0		-1.0870577392578125	-0.05501117706298828	0		-0.9218024291992187	-2.333260986328125	0		1.3154898681640625	-0.5506908569335938	0		3.014404541015625	0.054588066101074216	0		4.5191455078125	0.07104913330078125	0		5.53708984375	0.01234298324584961	0		-0.047775333404541015	5.9573154296875	0		
0.01552573013305664	0.0011954150199890137	0		0.42095529174804686	-2.323390869140625	0		-1.0819150390625	-0.0514238166809082	0		-0.9185585327148438	-2.3316181640625	0		1.319664306640625	-0.54692822265625	0		2.993146484375	0.041019088745117185	0		4.51537109375	0.07919271087646484	0		5.53814013671875	0.012442246437072754	0		-0.03286254119873047	5.9677451171875	0		
-0.06941055297851563	0.005864821910858155	0		0.4200367126464844	-2.325555908203125	0		-1.0890887451171876	-0.05855113983154297	0		-0.8835297241210938	-2.336666748046875	0		1.338560302734375	-0.5524782104492187	0		3.00938232421875	0.05263881301879883	0		4.51634228515625	0.07924551391601563	0		5.53911572265625	0.012560674667358399	0		-0.031291702270507815	5.966484375	0		
0.014338938713073731	-0.0021929919719696047	0		0.4200243225097656	-2.328726318359375	0		-1.0881822509765624	-0.05884238815307617	0		-0.93128662109375	-2.32786376953125	0		1.3123729248046876	-0.5580137939453125	0		3.027989990234375	0.039218925476074216	0		4.528927734375	0.0650562515258789	0		5.535841796875	0.004789904117584228	0		-0.045993476867675784	5.956595703125	0		
0.011088459014892579	-0.006307839870452881	0		0.42101416015625	-2.328903564453125	0		-1.087341796875	-0.05911892318725586	0		-0.8855941772460938	-2.3421181640625	0		1.3342191162109376	-0.5595947265625	0		2.991009521484375	0.04804868698120117	0		4.5228935546875	0.07130229187011719	0		5.536677734375	0.0049494562149047855	0		-0.04554908752441406	5.9563876953125	0		
0.011044327735900878	0.0015232269763946534	0		0.3701378479003906	-2.3199248046875	0		-1.072517822265625	-0.057689441680908206	0		-0.904609130859375	-2.339928466796875	0		1.3291693115234375	-0.5535647583007812	0		3.0024755859375	0.033820980072021486	0		4.52366845703125	0.07141539764404296	0		5.55636474609375	7.140470147132873E-4	0		-0.028996536254882813	5.96384130859375	0		
0.02690159797668457	0.007019489765167236	0		0.42799005126953127	-2.322322021484375	0		-1.073608642578125	-0.04989527893066406	0		-0.864751220703125	-2.3420185546875	0		1.3299366455078125	-0.553648681640625	0		3.038566650390625	0.050080631256103514	0		4.53334716796875	0.06935267639160156	0		5.5465126953125	0.020154664993286133	0		-0.02867361831665039	5.9636650390625	0		
0.017368152618408204	-0.0029175920486450195	0		0.3987977294921875	-2.323796630859375	0		-1.0769866943359374	-0.0530414047241211	0		-0.9127194213867188	-2.33317041015625	0		1.3426768798828126	-0.5529781494140625	0		2.99803759765625	0.041029319763183594	0		4.536068359375	0.07146366119384766	0		5.5471943359375	0.020380123138427735	0		-0.04457552719116211	5.9558544921875	0		
0.013091443061828613	0.0010461699962615967	0		0.4244818115234375	-2.32945654296875	0		-1.08449853515625	-0.060086959838867186	0		-0.8899033813476562	-2.33285888671875	0		1.337199951171875	-0.5598965454101562	0		2.993822998046875	0.04820263290405274	0		4.52772216796875	0.07283391571044921	0		5.53950341796875	0.0058037381172180175	0		-0.05959657669067383	5.94503466796875	0		
0.01858420181274414	-0.0031922409534454344	0		0.37135015869140625	-2.32338818359375	0		-1.0839134521484375	-0.06029632568359375	0		-0.9173011474609375	-2.339445556640625	0		1.319933349609375	-0.5545436401367188	0		3.00509423828125	0.03404948425292969	0		4.5221474609375	0.06615742492675782	0		5.54008349609375	0.006067788124084473	0		-0.04420568466186523	5.95557080078125	0		
0.019100830078125	-0.0033099379539489747	0		0.4010275268554688	-2.324107177734375	0		-1.069352783203125	-0.05879667663574219	0		-0.90270556640625	-2.3439326171875	0		1.3294228515625	-0.55776123046875	0		3.022058349609375	0.0547966423034668	0		4.52678759765625	0.07227696990966796	0		5.544771484375	0.014260350227355957	0		-0.043141056060791015	5.95442724609375	0		
-0.06331166458129883	0.004371579170227051	0		0.37879122924804687	-2.316690673828125	0		-1.0748006591796875	-0.053852703094482424	0		-0.907836669921875	-2.33197802734375	0		1.3271181640625	-0.5477088012695313	0		3.004303466796875	0.046299556732177734	0		4.52239453125	0.08060519409179688	0		5.54935888671875	0.021468875885009765	0		-0.028901105880737306	5.965013671875	0		
0.022952051162719728	-5.725100040435791E-4	0		0.42703915405273435	-2.32978466796875	0		-1.078533447265625	-0.057937862396240235	0		-0.9114038696289063	-2.336051025390625	0		1.324421142578125	-0.551640869140625	0		3.031792236328125	0.052842796325683596	0		4.53239111328125	0.06462905120849609	0		5.5413857421875	0.0069535870552062985	0		-0.044197628021240234	5.95524169921875	0		
-0.05782329940795899	-9.185780286788941E-4	0		0.4005264892578125	-2.32625830078125	0		-1.0823436279296874	-0.061010738372802735	0		-0.886927734375	-2.33371240234375	0		1.33953515625	-0.5599457397460937	0		3.004893798828125	0.04655953216552734	0		4.52297998046875	0.0810850372314453	0		5.5416337890625	0.00727207088470459	0		-0.05961037826538086	5.94448095703125	0		
0.015369576454162598	4.507920145988464E-4	0		0.4277667541503906	-2.3298740234375	0		-1.08219384765625	-0.06115652847290039	0		-0.9127175903320313	-2.33828857421875	0		1.318746337890625	-0.55847216796875	0		3.012076904296875	0.04855381011962891	0		4.534818359375	0.06708396911621094	0		5.54177880859375	0.007595952987670899	0		-0.044655261993408205	5.9550849609375	0		
-0.05763481521606445	-0.0010526349544525146	0		0.3870220031738281	-2.3270302734375	0		-1.068107421875	-0.05958609390258789	0		-0.8985804443359375	-2.341705322265625	0		1.3308463134765625	-0.5576935424804688	0		2.993950439453125	0.041088878631591795	0		4.5218173828125	0.06561632537841797	0		5.54016162109375	0.02395981216430664	0		-0.1612941131591797	5.943494140625	0		
0.03048247718811035	0.00603172492980957	0		0.4352814025878906	-2.320068603515625	0		-1.064094482421875	-0.05678739547729492	0		-0.89235302734375	-2.3359384765625	0		1.3369765625	-0.5507789916992187	0		3.040392333984375	0.06426234436035157	0		4.5320537109375	0.07965628051757813	0		5.5500830078125	0.023070690155029296	0		-0.029305614471435548	5.96263623046875	0		
0.015217364311218262	3.1836599111557007E-4	0		0.40523065185546875	-2.32243994140625	0		-1.0782713623046876	-0.058592243194580076	0		-0.882200439453125	-2.329241455078125	0		1.345825927734375	-0.5529173583984375	0		2.988899169921875	0.048503044128417966	0		4.522951171875	0.08210005187988281	0		5.54579296875	0.01647544288635254	0		-0.04599078369140625	5.9549404296875	0		
0.019911388397216796	-0.0038081860542297364	0		0.42799777221679686	-2.329921630859375	0		-1.0825506591796874	-0.06159546661376953	0		-0.910442626953125	-2.33672607421875	0		1.32466455078125	-0.5514169311523438	0		3.01654296875	0.042072021484375	0		4.53442822265625	0.06810054016113282	0		5.54140380859375	0.008873458862304687	0		-0.1790263214111328	5.93470068359375	0		
